<svg xmlns="http://www.w3.org/2000/svg" xmlns:xlink="http://www.w3.org/1999/xlink" width="1920" height="1924" viewBox="0 0 1920 1924"><defs><clipPath id="a"><rect width="1920" height="1924" transform="translate(0 1274)" fill="none"/></clipPath></defs><g transform="translate(0 -1274)" clip-path="url(#a)"><path d="M0,57.4S304,236.471,688,192.76s488-428.651,848-310.208S1920,57.4,1920,57.4V1772H0Z" transform="translate(0 1418.05)" fill="#f1ba24"/><path d="M4873.837,1870.066c-128.045,80.083-287.368,77.19-429.6,42.506-158.3-38.6-305.409-112.61-464.035-150.235-315.546-74.848-644.235-21.763-956.117,45.172-329.942,70.811-663.5,160.264-1004.053,137.284-327.045-22.069-635.658-142.738-956.566-199.311-263.756-46.5-555.463-49.806-797.645,79.763a789.586,789.586,0,0,0-88.626,55.5c-1.553,1.117-.057,3.721,1.514,2.59,236.976-170.507,544.155-185.554,823.839-144.661,314.451,45.977,614.07,163.365,930.17,200.933,333.345,39.616,661.739-34.155,985.425-105.837,323.722-71.691,660.689-141.9,992.328-82.819,161.589,28.788,309.664,98.345,465.727,145.935,131.56,40.119,277.137,61.875,410.658,17.612a409.919,409.919,0,0,0,88.5-41.838c1.633-1.021.128-3.618-1.514-2.59" transform="translate(-1485.904 568.489)" fill="none" stroke="#f8c129" stroke-width="12"/><path d="M126.544,1138.67c128.044-80.082,287.368-77.19,429.6-42.506,158.3,38.6,305.409,112.609,464.035,150.235,315.546,74.848,644.236,21.763,956.117-45.172,329.942-70.81,663.5-160.263,1004.053-137.284,327.045,22.069,635.658,142.739,956.566,199.312,263.756,46.5,555.463,49.805,797.645-79.764a789.57,789.57,0,0,0,88.626-55.5c1.553-1.117.057-3.721-1.514-2.589-236.976,170.506-544.155,185.553-823.838,144.66-314.451-45.977-614.071-163.366-930.171-200.933-333.345-39.616-661.739,34.155-985.425,105.837-323.722,71.691-660.689,141.905-992.328,82.821C928.325,1229,780.25,1159.444,624.187,1111.854c-131.559-40.119-277.137-61.875-410.658-17.612a409.944,409.944,0,0,0-88.5,41.838c-1.633,1.021-.129,3.618,1.514,2.59" transform="translate(-1485.904 568.489)" fill="none" stroke="#f8c129" stroke-width="12"/><path d="M4499.233,1419.293c-54.168,5.267-106.907,16.62-158.985,30.821-156.932-69.655-324.912-114.516-495.949-133.289a1641.731,1641.731,0,0,0-462.279,14.668c-14.8-12.114-29.856-23.906-45.368-35.139-61.309-44.391-129.676-76.473-203.322-94.2-328.956-79.207-641.492,98.519-920.277,248.642-147.608,79.486-297.7,152.645-460.471,195.465q-65.387,17.2-132.064,28.716c-14.7-11.943-29.157-24.231-43.483-36.665-55.263-47.967-109.574-98.06-172.434-136.122-66.016-39.973-139.7-61.2-216.714-64.757-174.079-8.051-336.741,62.606-500.57,110.238q-13.743,3.994-27.705,7.756a1576.064,1576.064,0,0,1-229.449-125.6q-47.272-31.292-92.116-66.007c-1.528-1.178-3.023,1.427-1.514,2.59a1577.1,1577.1,0,0,0,318.931,190.125C510.4,1595.06,349.878,1611.258,213.9,1535.587a334.27,334.27,0,0,1-87.052-69.709c-1.288-1.443-3.4.684-2.121,2.121,93.357,104.559,241.828,134.531,376.421,121.444,54.169-5.267,106.908-16.62,158.986-30.821,156.931,69.655,324.911,114.516,495.949,133.289a1641.772,1641.772,0,0,0,462.279-14.667c14.8,12.114,29.856,23.906,45.368,35.138,61.309,44.392,129.676,76.473,203.322,94.206,328.956,79.206,641.492-98.519,920.278-248.643,147.607-79.486,297.7-152.645,460.47-195.465q65.387-17.2,132.063-28.715c14.7,11.942,29.158,24.23,43.485,36.665,55.262,47.966,109.573,98.059,172.433,136.121,66.016,39.973,139.7,61.195,216.714,64.757,174.079,8.052,336.74-62.6,500.57-110.237q13.743-4,27.705-7.757a1576.121,1576.121,0,0,1,229.449,125.6q47.271,31.291,92.115,66.007c1.528,1.179,3.023-1.426,1.515-2.59a1577.179,1577.179,0,0,0-318.932-190.125c145.065-38.531,305.586-54.729,441.565,20.942a334.3,334.3,0,0,1,87.052,69.709c1.288,1.444,3.4-.684,2.121-2.12-93.357-104.56-241.828-134.532-376.422-121.445m-3201.791,279.14c-217.329-5.452-434.135-53.169-633.157-140.945,116.56-32.14,229.9-78.158,348.621-101.8,88-17.522,180.342-23.738,268.23-2.165,80.663,19.8,149.413,64.894,212.753,117.119,41.5,34.216,81.014,70.879,122.568,105.028a1651.4,1651.4,0,0,1-319.015,22.761m1663.69-233c-304.663,144.37-595.626,363.606-948.258,356.367-82.716-1.7-165.5-17.051-241.472-50.418-54.587-23.976-103.01-57.67-148.962-94.846a1644.221,1644.221,0,0,0,416.81-133.23c304.663-144.37,595.626-363.607,948.258-356.368,82.717,1.7,165.5,17.051,241.471,50.418,54.588,23.976,103.012,57.67,148.963,94.847a1644.133,1644.133,0,0,0-416.81,133.23m1026.344,87.614c-88,17.522-180.342,23.738-268.23,2.165-80.663-19.8-149.413-64.894-212.753-117.119-41.5-34.216-81.014-70.879-122.568-105.028a1651.318,1651.318,0,0,1,319.014-22.76c217.329,5.451,434.135,53.168,633.158,140.945-116.56,32.139-229.9,78.157-348.621,101.8" transform="translate(-1485.904 568.489)" fill="none" stroke="#f8c129" stroke-width="12"/><path d="M218.435,952.329c214.94,37.8,432.1,22.627,645.223-16.233q209.295,44.274,421.986,70.144a4935.253,4935.253,0,0,0,939.679,23.93c311.992-21.874,617.551-77.415,920.551-153.591,39.409-9.907,78.957-19.821,118.661-29.192,157.689,52.069,316.93,97.922,482.919,116.265,131.511,14.533,270.063,8.829,399.925-24.692,93.931,49.383,189.853,97.974,295.571,112.094,102.691,13.715,219.55-1.122,299.779-72.139a251.667,251.667,0,0,0,48.659-59.089,1.5,1.5,0,0,0-2.591-1.515c-62.9,104.415-188.264,139.586-303.875,133.639-120.167-6.182-227.989-59.386-333-114.17,129.916-34.24,250.925-96.5,347.187-194.456a633.89,633.89,0,0,0,59.21-70c1.143-1.559-1.46-3.057-2.59-1.514-100.4,137.1-247.738,221.475-408.224,263.665-14.467-7.559-28.886-15.135-43.278-22.61-62.376-32.4-125.665-63.786-192.643-85.617-70.124-22.857-143.515-34.494-217.126-37.349-145.035-5.624-289.1,21.42-429.769,54.468-91.481-30.246-182.432-62.567-273.666-92.748q57.168-8.046,114.067-17.846A3722.175,3722.175,0,0,0,3560.159,625.35q27.987,4.866,56.107,9.048c294.628,43.8,597.484,32.311,887.695-35.039q55.079-12.783,109.472-28.238a1.5,1.5,0,0,0-.8-2.893c-291.528,82.351-598.1,107.825-899.3,75.576q-73.721-7.895-146.857-20.388a3705.014,3705.014,0,0,0,358.553-130.844c264.724-112.418,516.338-256.011,746.521-428.537q40.291-30.2,79.692-61.564c1.511-1.2-.624-3.31-2.122-2.121-226.151,179.661-474.369,330.815-737.117,450.672A3690.745,3690.745,0,0,1,3559.99,622.3a2339.358,2339.358,0,0,1-296.025-71.437C3123.98,507.216,2988.937,449.617,2851.8,398.068c-133.359-50.129-270.082-95.635-411.979-113.608-137.665-17.438-273.955-3.688-405.385,40.637-129.4,43.642-249.716,109.4-371.153,170.922-94.341,47.793-189.975,91.942-290.133,124.321-296.318-72.061-599.025-141.526-905.691-120.4-38.258,2.636-76.37,6.8-114.327,12.247-1.9.273-1.094,3.164.8,2.892,334.232-48.007,668.1,23.512,991.949,101.749q10.88,2.628,21.755,5.269c-31.037,9.883-62.507,18.639-94.518,26-275.7,63.384-571.164,37.238-831.255-74.071-31.869-13.639-63.1-28.693-93.778-44.82-1.707-.9-3.225,1.691-1.514,2.591C590.608,660.067,873.33,709.072,1146.578,673.75a1310.315,1310.315,0,0,0,226.507-50.328c121.738,29.567,243.346,59.951,365.948,85.716-191.175,46.424-379.707,104.453-569.9,154.339-100.549,26.373-202.436,50.78-305.2,69.72q-191.3-40.439-378.913-96.228-54.686-16.284-108.97-33.862c-1.841-.595-2.63,2.3-.8,2.893A4865.546,4865.546,0,0,0,856.425,934.573c-173.264,31.469-348.986,47.151-524.968,30.211q-56.406-5.43-112.225-15.348c-1.888-.332-2.7,2.558-.8,2.893m3403.809-159.6c78.64-2.523,157.746,3.507,234.335,22.063,75.48,18.289,146.346,49.842,215.385,84.855,23.643,11.99,47.279,24.509,71.036,37.011-105.121,27.078-215.727,36.154-322.375,30.138-189.756-10.7-371.255-61.542-550.651-120.682,115.915-27.2,233.175-49.565,352.27-53.385M1427.506,633.585q-24.409-5.952-48.878-11.913a1465.726,1465.726,0,0,0,153.074-58.8c128.185-57.508,249.937-128.266,378.286-185.425,133.232-59.334,272.771-99.759,419.722-97.85,146.769,1.907,290.224,39.947,428.124,87.621,140.784,48.671,277.587,108.008,418.077,157.483a2390.243,2390.243,0,0,0,377.794,99.506,3724.711,3724.711,0,0,1-361.351,90.375Q3089.014,735,2984.615,749.507c-37.416-12.334-74.883-24.3-112.458-35.583-147.715-44.377-298.782-78.218-453.2-86.153-138.571-7.121-277.478,4.422-414.262,26.632-87.1,14.141-173.263,32.435-258.892,53.1-106.617-22.267-212.5-48.122-318.3-73.915M2977.89,750.444a3642.061,3642.061,0,0,1-643.575,31.092,3501.923,3501.923,0,0,1-433.852-44.761c-49.375-8.25-98.529-17.632-147.527-27.787,48.741-11.7,97.669-22.645,146.874-32.483,142.874-28.567,288.112-47.689,434.008-47.844,159.851-.171,316.768,26.361,470.575,68.824,58.214,16.072,115.962,34.071,173.5,52.959M1054.357,895.486c232.092-55.716,459.8-128.838,691.776-184.867q42.375,8.841,84.924,16.868a3495.772,3495.772,0,0,0,424.612,52.96c243,15.337,487.481,5.6,728.635-27.892,91.826,30.258,183.135,62.684,274.949,93.087q-6.777,1.6-13.542,3.216c-151.645,36.231-302.029,76.266-455.322,105.307q-232.02,43.956-467.578,65.186a4931.358,4931.358,0,0,1-923.742-3.663,4899.989,4899.989,0,0,1-527.915-80.969c61.459-11.37,122.578-24.679,183.2-39.233" transform="translate(-1485.904 568.489)" fill="none" stroke="#f8c129" stroke-width="12"/><path d="M5044.16,2543.182a3235.016,3235.016,0,0,0-531.352-290.262q40.088,2.688,80.164,7.377c39.773,4.7,79.282,11.129,118.539,19.034,1.885.38,2.691-2.511.8-2.892a1514.285,1514.285,0,0,0-206.405-26.491,3301.579,3301.579,0,0,0-368.562-132.461c-321.7-94.509-657.745-140.586-993.029-134.906a3196.253,3196.253,0,0,0-491.954,46.308c-188.088,32.63-372.76,81.714-559.418,121.226-187.388,39.667-378.649,70.272-570.8,61.547-196.249-8.912-380.213-70.44-566.757-126.423-175.006-52.52-359.663-97.982-543.406-71.151a630.476,630.476,0,0,0-89.353,19.758q-18.744-20.419-36.79-41.486-34.234-40-65.708-82.23c-1.143-1.528-3.749-.034-2.591,1.514q47.99,64.15,102.128,123.1c-105.84,32.215-204.1,93.058-269.916,182.469A410.624,410.624,0,0,0,.116,2306.494c-.726,1.788,2.174,2.566,2.892.8,55.251-136.066,181.119-228.355,318.834-270.171,95.477,103.676,204.293,194.738,322.641,271.324-128.974,14.675-256.951,37.258-382.775,70.062q-53.424,13.929-106.157,30.3c-1.838.568-1.054,3.465.8,2.893,160.709-49.646,325.691-81.638,492.358-100.518a1730.432,1730.432,0,0,0,186.78,104.342c241.814,116.111,510.961,176.941,779.448,169.614,287.165-7.837,561.05-98.562,829.217-195.5,123.77,9.145,247.693,15.816,371.848,18,153.952,2.7,308.143-1.572,461.427-16.647,144.976-14.258,288.693-38.617,432.21-63.145,103.69-17.72,208.119-35.826,312.981-50.213,88.724,52.242,167.952,119.356,230.8,202.122a714.24,714.24,0,0,1,52.345,79.758,1.5,1.5,0,0,0,2.591-1.515c-67.485-119-166.827-212.341-282.219-280.847,158.717-21.646,318.422-34.648,478.058-24.776a3220.147,3220.147,0,0,1,435.7,226.658q52.028,32.371,102.761,66.745c1.6,1.084,3.107-1.514,1.514-2.59m-3274.849,27.173c-273.485,34.2-553.611-4.494-810.076-104.37A1742.368,1742.368,0,0,1,653.37,2310.658c120.97-13.524,242.815-20.169,364.547-21.658,295.017-3.609,589.255,22.121,882.581,50.8,178.62,17.464,357.327,35.92,536.354,49.288-217.625,78.68-437.057,152.443-667.541,181.267m2077.4-268.725c-150.585,24.837-300.7,52.81-452.044,72.782-151.754,20.027-304.547,29.64-457.587,30.845-162.271,1.278-324.278-6.277-486.033-18.116q52.328-18.944,104.386-38c315.013-114.781,644.3-230.051,984.705-211.713,164.748,8.876,334.1,53.8,478.639,137.955-57.572,7.86-114.963,16.825-172.066,26.244M4022.34,2274.9c-104.437-61.323-221.8-102.434-340.517-123.9-316.8-57.3-639.672,26.011-938.358,128.05-100.152,34.215-199.77,71.363-299.749,107.561-143.9-10.647-287.6-24.634-431.107-38.774-296.737-29.237-593.869-59.1-892.3-61.949-157.148-1.5-314.907,4.483-471.223,22.038-118.938-76.524-228.395-167.677-324.274-271.7q10.973-3.269,22.029-6.118c184.11-47.322,378.284-8.122,557.08,43.13,176.494,50.591,350.114,115.076,533.753,134.979,180.115,19.52,361.692.524,539.144-31.991,185.207-33.935,367.32-82.389,551.638-120.555,168.338-34.858,338.574-58.071,510.328-66.579C3370.644,1972.65,3704.8,2007.4,4026.55,2090.1a3318.338,3318.338,0,0,1,470.77,159.335c-158.245-8.927-317.288,4.062-474.98,25.464" transform="translate(-1485.904 568.489)" fill="none" stroke="#f8c129" stroke-width="12"/><path d="M0,0H1944V2147.432s-490,116.975-976,116.975S0,2147.432,0,2147.432Z" transform="translate(0 5574.094)" fill="#f8c129"/></g></svg>