<?xml version="1.0" encoding="UTF-8"?>
<svg id="Layer_2" data-name="Layer 2" xmlns="http://www.w3.org/2000/svg" viewBox="0 0 1053.04 424.95">
  <defs>
    <style>
      .cls-1 {
        fill: #e8db7d;
      }

      .cls-1, .cls-2 {
        stroke-width: 0px;
      }

      .cls-3 {
        isolation: isolate;
      }

      .cls-2 {
        fill: #eff7ff;
      }
    </style>
  </defs>
  <g id="Layer_1-2" data-name="Layer 1">
    <g id="Kipara" class="cls-3">
      <g class="cls-3">
        <path class="cls-1" d="m41.02,412.85c0,7.73-4.37,12.1-12.43,12.1h-15.46c-8.06,0-12.43-4.37-12.43-12.1v-200.93c0-7.73,4.37-12.1,12.43-12.1h15.46c8.06,0,12.43,4.37,12.43,12.1v200.93Zm121.3,12.1h-19.82c-5.71,0-10.42-1.01-15.79-7.39-75.94-92.4-76.27-92.74-76.27-92.74-2.69-3.36-4.37-7.39-4.37-11.09,0-4.7,2.35-9.74,6.38-14.11l84.34-94.42c4.37-4.7,8.4-5.38,13.1-5.38h11.76c6.72,0,10.42,3.36,10.42,7.73,0,2.35-1.01,5.04-3.36,7.73,0,0-75.26,85.34-79.3,90.05-1.68,2.02-2.35,3.7-2.35,5.38,0,1.34.67,3.02,2.02,4.7,17.81,19.82,80.3,95.42,80.3,95.42,1.68,2.02,3.02,4.37,3.02,6.72,0,4.03-3.36,7.39-10.08,7.39Z"/>
        <path class="cls-1" d="m240.94,412.85c0,7.73-4.37,12.1-12.43,12.1h-15.46c-8.06,0-12.43-4.37-12.43-12.1v-200.93c0-7.73,4.37-12.1,12.43-12.1h15.46c8.06,0,12.43,4.37,12.43,12.1v200.93Z"/>
        <path class="cls-1" d="m437.83,265.01c0,19.82-6.38,35.28-18.48,46.03-15.46,13.1-36.29,18.82-69.89,18.82h-21.84c-4.37,0-7.06,2.69-7.06,7.06v75.94c0,7.73-4.7,12.1-12.43,12.1h-15.79c-7.73,0-12.43-4.37-12.43-12.1v-189.84c0-14.78,8.4-23.18,23.18-23.18h32.59q13.44,0,13.44,0c27.89,0,46.37,3.7,59.81,12.1,19.15,11.42,28.9,29.23,28.9,52.75v.34Zm-52.42-26.88c-8.06-7.73-19.15-11.42-40.32-11.42h-17.47c-4.7,0-7.06,2.69-7.06,7.06v62.5c0,4.37,2.35,6.72,7.06,6.72h17.47c21.17,0,32.26-3.7,40.32-11.42,6.38-6.05,9.41-14.78,9.41-26.54s-3.02-20.83-9.41-26.88Z"/>
        <path class="cls-1" d="m619.27,424.95h-19.49c-7.39,0-11.76-2.69-14.45-9.74l-18.82-46.7c-1.34-3.36-3.7-4.7-7.39-4.7h-79.3c-3.7,0-6.05,1.34-7.39,4.7l-18.82,46.7c-2.69,6.72-6.38,9.74-14.45,9.74h-8.74c-6.72,0-10.08-3.36-10.08-8.06,0-1.68.34-3.7,1.34-5.71q81.65-200.59,81.65-200.93c3.7-8.74,12.77-14.45,21.84-14.45,10.42,0,18.82,7.73,21.5,14.78l81.98,200.93c.67,1.68,1.01,3.36,1.01,5.04,0,5.04-4.03,8.4-10.42,8.4Zm-67.54-92.74l-29.9-74.26c-.67-1.34-1.68-2.02-2.69-2.02s-2.02.67-2.69,2.02l-29.57,74.26c-.34,1.01-.34,1.68-.34,2.35,0,1.68,1.01,2.35,3.02,2.35h59.47c2.02,0,3.02-.67,3.02-2.35,0-.67,0-1.34-.34-2.35Z"/>
        <path class="cls-1" d="m814.82,424.95h-19.15c-7.06,0-12.1-2.02-16.46-7.73-67.2-87.36-67.2-88.03-67.2-88.03-3.36-4.03-5.04-8.74-5.04-13.1,0-2.02.67-4.37,1.68-6.38,2.69-5.71,9.07-9.07,17.14-9.07h2.35c32.59,0,51.74-10.75,51.74-36.29,0-11.76-5.04-20.16-11.42-26.21-8.74-8.4-23.86-12.1-46.37-12.1h-19.82.34c-4.7,0-7.39,2.35-7.39,6.72l.34,180.1c0,7.73-4.7,12.1-12.43,12.1h-15.79c-8.06,0-12.43-4.37-12.43-12.1v-189.84c0-14.78,8.4-23.18,23.52-23.18h47.71c76.27,0,94.08,35.28,94.08,64.51,0,26.88-17.47,49.06-47.71,56.78-7.06,1.68-9.74,2.35-17.81,3.02l68.21,85.68c1.68,2.35,2.35,4.37,2.35,6.72,0,4.37-3.7,8.4-10.42,8.4Z"/>
        <path class="cls-1" d="m1042.63,424.95h-19.49c-7.39,0-11.76-2.69-14.45-9.74l-18.82-46.7c-1.34-3.36-3.7-4.7-7.39-4.7h-79.3c-3.7,0-6.05,1.34-7.39,4.7l-18.82,46.7c-2.69,6.72-6.38,9.74-14.45,9.74h-8.74c-6.72,0-10.08-3.36-10.08-8.06,0-1.68.34-3.7,1.34-5.71q81.65-200.59,81.65-200.93c3.7-8.74,12.77-14.45,21.84-14.45,10.42,0,18.82,7.73,21.5,14.78l81.98,200.93c.67,1.68,1.01,3.36,1.01,5.04,0,5.04-4.03,8.4-10.42,8.4Zm-67.54-92.74l-29.9-74.26c-.67-1.34-1.68-2.02-2.69-2.02s-2.02.67-2.69,2.02l-29.57,74.26c-.34,1.01-.34,1.68-.34,2.35,0,1.68,1.01,2.35,3.02,2.35h59.47c2.02,0,3.02-.67,3.02-2.35,0-.67,0-1.34-.34-2.35Z"/>
      </g>
    </g>
    <g id="Packraft" class="cls-3">
      <g class="cls-3">
        <path class="cls-2" d="m110.92,48.62c0,13.92-4.48,24.78-12.98,32.33-10.86,9.2-25.49,13.21-49.09,13.21h-15.34c-3.07,0-4.96,1.89-4.96,4.96v53.33c0,5.43-3.3,8.5-8.73,8.5h-11.09c-5.43,0-8.73-3.07-8.73-8.5V19.12C0,8.73,5.9,2.83,16.28,2.83h32.33c19.59,0,32.57,2.6,42.01,8.5,13.45,8.02,20.3,20.53,20.3,37.05v.24Zm-36.81-18.88c-5.66-5.43-13.45-8.02-28.32-8.02h-12.27c-3.3,0-4.96,1.89-4.96,4.96v43.89c0,3.07,1.65,4.72,4.96,4.72h12.27c14.87,0,22.66-2.6,28.32-8.02,4.48-4.25,6.61-10.38,6.61-18.64s-2.12-14.63-6.61-18.88Z"/>
        <path class="cls-2" d="m238.36,160.95h-13.69c-5.19,0-8.26-1.89-10.15-6.84l-13.22-32.8c-.94-2.36-2.6-3.3-5.19-3.3h-55.69c-2.6,0-4.25.94-5.19,3.3l-13.22,32.8c-1.89,4.72-4.48,6.84-10.15,6.84h-6.14c-4.72,0-7.08-2.36-7.08-5.66,0-1.18.24-2.6.94-4.01Q156.94,10.38,156.94,10.15c2.6-6.14,8.97-10.15,15.34-10.15,7.32,0,13.22,5.43,15.1,10.38l57.58,141.12c.47,1.18.71,2.36.71,3.54,0,3.54-2.83,5.9-7.32,5.9Zm-47.43-65.13l-21-52.15c-.47-.94-1.18-1.42-1.89-1.42s-1.42.47-1.89,1.42l-20.77,52.15c-.24.71-.24,1.18-.24,1.65,0,1.18.71,1.65,2.12,1.65h41.77c1.42,0,2.12-.47,2.12-1.65,0-.47,0-.94-.24-1.65Z"/>
        <path class="cls-2" d="m376.89,149.15c-10.86,9.44-26.43,14.63-46.49,14.63-22.66,0-42.24-7.55-56.87-22.89-14.4-15.1-22.89-36.58-22.89-59s8.5-43.89,22.89-59C288.15,7.79,307.98.24,330.4.24c20.06,0,35.63,5.19,46.49,14.4,3.07,2.83,4.72,6.14,4.72,9.91,0,1.42-.24,2.83-.71,4.25-1.65,4.48-5.43,6.37-9.2,6.37-3.07,0-6.14-1.18-8.02-3.3-5.66-5.9-15.58-12.51-31.62-12.51-28.32,0-50.27,25.25-50.27,62.54s21.95,62.54,50.27,62.54c16.05,0,25.96-6.61,31.86-12.27,2.36-2.12,5.43-3.54,8.5-3.54,3.54,0,6.84,1.89,8.5,5.66.47,1.42.71,3.07.71,4.48,0,3.78-1.65,7.79-4.72,10.38Z"/>
        <path class="cls-2" d="m428.57,152.45c0,5.43-3.07,8.5-8.73,8.5h-10.86c-5.66,0-8.73-3.07-8.73-8.5V11.33c0-5.43,3.07-8.5,8.73-8.5h10.86c5.66,0,8.73,3.07,8.73,8.5v141.12Zm85.19,8.5h-13.92c-4.01,0-7.32-.71-11.09-5.19-53.33-64.9-53.57-65.13-53.57-65.13-1.89-2.36-3.07-5.19-3.07-7.79,0-3.3,1.65-6.84,4.48-9.91L495.83,6.61c3.07-3.3,5.9-3.78,9.2-3.78h8.26c4.72,0,7.32,2.36,7.32,5.43,0,1.65-.71,3.54-2.36,5.43,0,0-52.86,59.94-55.69,63.25-1.18,1.42-1.65,2.6-1.65,3.78,0,.94.47,2.12,1.42,3.3,12.51,13.92,56.4,67.02,56.4,67.02,1.18,1.42,2.12,3.07,2.12,4.72,0,2.83-2.36,5.19-7.08,5.19Z"/>
        <path class="cls-2" d="m652.53,160.95h-13.45c-4.96,0-8.5-1.42-11.56-5.43-47.2-61.36-47.2-61.83-47.2-61.83-2.36-2.83-3.54-6.14-3.54-9.2,0-1.42.47-3.07,1.18-4.48,1.89-4.01,6.37-6.37,12.04-6.37h1.65c22.89,0,36.34-7.55,36.34-25.49,0-8.26-3.54-14.16-8.02-18.41-6.14-5.9-16.76-8.5-32.57-8.5h-13.92.24c-3.3,0-5.19,1.65-5.19,4.72l.24,126.49c0,5.43-3.3,8.5-8.73,8.5h-11.09c-5.66,0-8.73-3.07-8.73-8.5V19.12c0-10.38,5.9-16.28,16.52-16.28h33.51c53.57,0,66.08,24.78,66.08,45.31,0,18.88-12.27,34.46-33.51,39.88-4.96,1.18-6.84,1.65-12.51,2.12l47.91,60.18c1.18,1.65,1.65,3.07,1.65,4.72,0,3.07-2.6,5.9-7.32,5.9Z"/>
        <path class="cls-2" d="m812.54,160.95h-13.69c-5.19,0-8.26-1.89-10.15-6.84l-13.22-32.8c-.94-2.36-2.6-3.3-5.19-3.3h-55.69c-2.6,0-4.25.94-5.19,3.3l-13.22,32.8c-1.89,4.72-4.48,6.84-10.15,6.84h-6.14c-4.72,0-7.08-2.36-7.08-5.66,0-1.18.24-2.6.94-4.01q57.35-140.89,57.35-141.12c2.6-6.14,8.97-10.15,15.34-10.15,7.32,0,13.22,5.43,15.1,10.38l57.58,141.12c.47,1.18.71,2.36.71,3.54,0,3.54-2.83,5.9-7.32,5.9Zm-47.43-65.13l-21-52.15c-.47-.94-1.18-1.42-1.89-1.42s-1.42.47-1.89,1.42l-20.77,52.15c-.24.71-.24,1.18-.24,1.65,0,1.18.71,1.65,2.12,1.65h41.77c1.42,0,2.12-.47,2.12-1.65,0-.47,0-.94-.24-1.65Z"/>
        <path class="cls-2" d="m926.05,81.89c0,4.25-2.6,6.84-7.08,6.84h-48.61c-3.07,0-4.96,1.65-4.96,4.72v59c0,5.43-3.07,8.5-8.73,8.5h-10.38c-5.66,0-8.73-3.07-8.73-8.5V19.12c0-5.19,1.42-9.44,4.25-12.04,2.83-2.83,6.84-4.25,12.04-4.25h65.13c4.48,0,7.08,2.6,7.08,6.84v5.43c0,4.25-2.6,6.84-7.08,6.84h-48.85c-2.83,0-4.72,1.89-4.72,4.72v38.23c0,2.83,1.89,4.72,4.72,4.72h48.85c4.48,0,7.08,2.6,7.08,6.84v5.43Z"/>
        <path class="cls-2" d="m1052.55,15.58c0,4.25-2.6,6.84-7.08,6.84h-32.33c-3.3,0-4.96,1.89-4.96,4.72v125.31c0,5.43-3.3,8.5-8.97,8.5h-10.86c-5.66,0-8.73-3.07-8.73-8.5V26.9c0-2.83-1.89-4.48-4.96-4.48h-32.8c-4.48,0-7.08-2.6-7.08-6.84v-5.9c0-4.25,2.6-6.84,7.08-6.84h103.6c4.48,0,7.08,2.6,7.08,6.84v5.9Z"/>
      </g>
    </g>
  </g>
</svg>