<svg xmlns="http://www.w3.org/2000/svg" xmlns:xlink="http://www.w3.org/1999/xlink" width="2134" height="780" viewBox="0 0 2134 780"><defs><clipPath id="b"><rect width="2134" height="780"/></clipPath></defs><g id="a" clip-path="url(#b)"><g transform="translate(-53 -1134.323)"><path d="M2426,72.789c-47,542.105-54.236,714.105-94,714.105,0,0-2332,37.929-2332,0V72.789C0,63.438,160.364-21.4,636,53.577s548,35.194,916,0c195.776-18.723,340-13.03,580,35.832S2426,65.458,2426,72.789Z" transform="translate(-144 1111.429)" fill="#176060"/><path d="M4439.567,2161.144l183.648-736.114s-316.167,315.042-909.588,329.582S2866.979,2042.564,2532.1,1866.089c-437.069-230.32-1021.908-276.268-1177.559,0s-150.843,543.6,49.157,355.6c5.16,3.216,26.014,86.211,32,89.9,871.283,324.572,788.467-46.876,1647.283,44.572C3946.977,2448.158,4439.567,2161.144,4439.567,2161.144Z" transform="translate(-1865.096 2074.77)" fill="#176060"/></g></g></svg>